<svg width="321" height="321" xmlns="http://www.w3.org/2000/svg" xmlns:xlink="http://www.w3.org/1999/xlink" xml:space="preserve" overflow="hidden"><defs><clipPath id="clip0"><rect x="445" y="92" width="321" height="321"/></clipPath></defs><g clip-path="url(#clip0)" transform="translate(-445 -92)"><path d="M513.955 397.52C514.318 406.172 521.437 413 530.096 413L680.906 413C689.564 413 696.684 406.172 697.046 397.52L707.816 170.165 503.186 170.165 513.955 397.52ZM639.616 226.636C639.616 223.014 642.553 220.075 646.178 220.075L656.672 220.075C660.294 220.075 663.234 223.013 663.234 226.636L663.234 356.529C663.234 360.153 660.297 363.09 656.672 363.09L646.178 363.09C642.555 363.09 639.616 360.154 639.616 356.529L639.616 226.636ZM593.692 226.636C593.692 223.014 596.63 220.075 600.253 220.075L610.748 220.075C614.37 220.075 617.309 223.013 617.309 226.636L617.309 356.529C617.309 360.153 614.372 363.09 610.748 363.09L600.253 363.09C596.631 363.09 593.692 360.154 593.692 356.529L593.692 226.636 593.692 226.636ZM547.768 226.636C547.768 223.014 550.705 220.075 554.328 220.075L564.824 220.075C568.447 220.075 571.385 223.013 571.385 226.636L571.385 356.529C571.385 360.153 568.448 363.09 564.824 363.09L554.328 363.09C550.706 363.09 547.768 360.154 547.768 356.529L547.768 226.636Z" fill="#FFC000"/><path d="M714.987 108.536 645.413 108.536 645.413 95.383C645.413 93.5151 643.899 92 642.03 92L568.97 92C567.102 92 565.588 93.5151 565.588 95.383L565.588 108.536 496.013 108.536C490.414 108.536 485.876 113.075 485.876 118.674L485.876 150.521 725.124 150.521 725.124 118.674C725.124 113.075 720.586 108.536 714.987 108.536Z" fill="#FFC000"/></g></svg>