<svg width="321" height="321" xmlns="http://www.w3.org/2000/svg" xmlns:xlink="http://www.w3.org/1999/xlink" xml:space="preserve" overflow="hidden"><defs><clipPath id="clip0"><rect x="101" y="344" width="321" height="321"/></clipPath></defs><g clip-path="url(#clip0)" transform="translate(-101 -344)"><path d="M169.955 649.52C170.318 658.172 177.437 665 186.096 665L336.906 665C345.564 665 352.684 658.172 353.046 649.52L363.816 422.165 159.186 422.165 169.955 649.52ZM295.616 478.636C295.616 475.014 298.553 472.075 302.178 472.075L312.672 472.075C316.294 472.075 319.234 475.013 319.234 478.636L319.234 608.529C319.234 612.153 316.297 615.09 312.672 615.09L302.178 615.09C298.555 615.09 295.616 612.154 295.616 608.529L295.616 478.636ZM249.692 478.636C249.692 475.014 252.63 472.075 256.253 472.075L266.748 472.075C270.37 472.075 273.309 475.013 273.309 478.636L273.309 608.529C273.309 612.153 270.372 615.09 266.748 615.09L256.253 615.09C252.631 615.09 249.692 612.154 249.692 608.529L249.692 478.636 249.692 478.636ZM203.767 478.636C203.767 475.014 206.705 472.075 210.328 472.075L220.824 472.075C224.447 472.075 227.385 475.013 227.385 478.636L227.385 608.529C227.385 612.153 224.448 615.09 220.824 615.09L210.328 615.09C206.706 615.09 203.767 612.154 203.767 608.529L203.767 478.636Z" fill="#767171"/><path d="M370.987 360.536 301.413 360.536 301.413 347.383C301.413 345.515 299.899 344 298.03 344L224.97 344C223.102 344 221.588 345.515 221.588 347.383L221.588 360.536 152.013 360.536C146.414 360.536 141.876 365.075 141.876 370.674L141.876 402.521 381.124 402.521 381.124 370.674C381.124 365.075 376.586 360.536 370.987 360.536Z" fill="#767171"/></g></svg>