<svg width="321" height="321" xmlns="http://www.w3.org/2000/svg" xmlns:xlink="http://www.w3.org/1999/xlink" xml:space="preserve" overflow="hidden"><defs><clipPath id="clip0"><rect x="800" y="92" width="321" height="321"/></clipPath></defs><g clip-path="url(#clip0)" transform="translate(-800 -92)"><path d="M868.955 397.52C869.318 406.172 876.437 413 885.096 413L1035.91 413C1044.56 413 1051.68 406.172 1052.05 397.52L1062.82 170.165 858.186 170.165 868.955 397.52ZM994.616 226.636C994.616 223.014 997.553 220.075 1001.18 220.075L1011.67 220.075C1015.29 220.075 1018.23 223.013 1018.23 226.636L1018.23 356.529C1018.23 360.153 1015.3 363.09 1011.67 363.09L1001.18 363.09C997.555 363.09 994.616 360.154 994.616 356.529L994.616 226.636ZM948.692 226.636C948.692 223.014 951.63 220.075 955.253 220.075L965.748 220.075C969.37 220.075 972.309 223.013 972.309 226.636L972.309 356.529C972.309 360.153 969.372 363.09 965.748 363.09L955.253 363.09C951.631 363.09 948.692 360.154 948.692 356.529L948.692 226.636 948.692 226.636ZM902.768 226.636C902.768 223.014 905.705 220.075 909.328 220.075L919.824 220.075C923.447 220.075 926.385 223.013 926.385 226.636L926.385 356.529C926.385 360.153 923.448 363.09 919.824 363.09L909.328 363.09C905.706 363.09 902.768 360.154 902.768 356.529L902.768 226.636Z" fill="#FF0000"/><path d="M1069.99 108.536 1000.41 108.536 1000.41 95.383C1000.41 93.5151 998.899 92 997.03 92L923.97 92C922.102 92 920.588 93.5151 920.588 95.383L920.588 108.536 851.013 108.536C845.414 108.536 840.876 113.075 840.876 118.674L840.876 150.521 1080.12 150.521 1080.12 118.674C1080.12 113.075 1075.59 108.536 1069.99 108.536Z" fill="#FF0000"/></g></svg>