<svg width="321" height="321" xmlns="http://www.w3.org/2000/svg" xmlns:xlink="http://www.w3.org/1999/xlink" xml:space="preserve" overflow="hidden"><defs><clipPath id="clip0"><rect x="137" y="92" width="321" height="321"/></clipPath></defs><g clip-path="url(#clip0)" transform="translate(-137 -92)"><path d="M205.955 397.52C206.318 406.172 213.437 413 222.096 413L372.906 413C381.564 413 388.684 406.172 389.046 397.52L399.816 170.165 195.186 170.165 205.955 397.52ZM331.616 226.636C331.616 223.014 334.553 220.075 338.178 220.075L348.672 220.075C352.294 220.075 355.234 223.013 355.234 226.636L355.234 356.529C355.234 360.153 352.297 363.09 348.672 363.09L338.178 363.09C334.555 363.09 331.616 360.154 331.616 356.529L331.616 226.636ZM285.692 226.636C285.692 223.014 288.63 220.075 292.253 220.075L302.748 220.075C306.37 220.075 309.309 223.013 309.309 226.636L309.309 356.529C309.309 360.153 306.372 363.09 302.748 363.09L292.253 363.09C288.631 363.09 285.692 360.154 285.692 356.529L285.692 226.636 285.692 226.636ZM239.767 226.636C239.767 223.014 242.705 220.075 246.328 220.075L256.824 220.075C260.447 220.075 263.385 223.013 263.385 226.636L263.385 356.529C263.385 360.153 260.448 363.09 256.824 363.09L246.328 363.09C242.706 363.09 239.767 360.154 239.767 356.529L239.767 226.636Z" fill="#548235"/><path d="M406.987 108.536 337.413 108.536 337.413 95.383C337.413 93.5151 335.899 92 334.03 92L260.97 92C259.102 92 257.588 93.5151 257.588 95.383L257.588 108.536 188.013 108.536C182.414 108.536 177.876 113.075 177.876 118.674L177.876 150.521 417.124 150.521 417.124 118.674C417.124 113.075 412.586 108.536 406.987 108.536Z" fill="#548235"/></g></svg>